<?xml version="1.0" standalone="no"?>
<!DOCTYPE svg PUBLIC "-//W3C//DTD SVG 20010904//EN"
 "http://www.w3.org/TR/2001/REC-SVG-20010904/DTD/svg10.dtd">
<svg version="1.0" xmlns="http://www.w3.org/2000/svg"
 width="1080.000000pt" height="1080.000000pt" viewBox="0 0 1080.000000 1080.000000"
 preserveAspectRatio="xMidYMid meet">
<metadata>
Created by potrace 1.14, written by Peter Selinger 2001-2017
</metadata>
<g transform="translate(0.000000,1080.000000) scale(0.100000,-0.100000)"
fill="#000000" stroke="none">
<path d="M0 5400 l0 -5400 5400 0 5400 0 0 5400 0 5400 -5400 0 -5400 0 0
-5400z m8790 4478 c129 -27 232 -56 285 -79 60 -26 137 -89 186 -151 23 -29
58 -65 79 -81 39 -28 53 -57 66 -132 3 -22 13 -55 22 -73 27 -61 -17 -190
-123 -352 -75 -115 -74 -102 -6 -177 74 -80 134 -182 162 -274 18 -61 21 -87
16 -197 -5 -147 -19 -193 -91 -301 -49 -73 -103 -127 -232 -230 -48 -39 -82
-60 -92 -56 -27 10 -123 -16 -189 -52 -64 -35 -64 -35 -124 -23 -43 9 -105 11
-223 6 -244 -11 -544 23 -681 76 -122 48 -243 154 -333 291 -66 100 -76 149
-68 299 12 196 42 277 143 375 59 58 67 91 37 148 -94 178 -99 426 -12 603 55
112 229 267 371 332 64 29 195 66 257 74 19 2 130 2 245 -1 157 -4 234 -10
305 -25z m-3143 -48 c97 -9 119 -14 164 -40 28 -17 95 -53 148 -80 124 -64
223 -140 282 -217 55 -72 82 -138 100 -244 11 -67 10 -88 -4 -165 -31 -160
-106 -283 -235 -385 -41 -34 -84 -71 -94 -84 -15 -19 -31 -24 -100 -30 -46 -3
-139 -13 -208 -21 -69 -8 -188 -21 -265 -30 -172 -18 -219 -29 -271 -59 -22
-13 -87 -36 -145 -50 -57 -15 -126 -38 -152 -53 -109 -59 -243 -243 -235 -324
5 -55 37 -50 105 19 66 67 123 98 203 111 65 10 350 -10 455 -32 186 -40 258
-49 385 -50 114 -1 149 3 223 23 89 24 116 39 227 124 34 26 68 47 75 47 7 0
32 -17 54 -38 l41 -38 0 -105 c0 -89 34 -446 46 -488 5 -17 51 -9 111 20 32
16 43 27 48 52 17 82 37 139 47 129 11 -11 35 -289 25 -298 -3 -3 -92 -1 -199
5 -106 5 -213 8 -238 6 -140 -13 -150 -13 -150 5 0 9 11 27 25 40 18 17 22 27
14 36 -22 27 -50 26 -90 -2 -31 -21 -42 -25 -48 -15 -5 7 -19 11 -32 8 l-24
-4 23 -8 c32 -11 27 -23 -15 -35 -99 -29 -198 -23 -335 21 -33 10 -66 19 -73
19 -7 0 -25 -20 -39 -45 -15 -24 -36 -51 -48 -60 -27 -18 -114 -20 -188 -4
-44 9 -50 14 -50 36 0 14 11 38 25 55 14 16 25 33 25 37 0 19 -595 38 -720 23
-47 -6 -87 -8 -90 -5 -3 2 -5 98 -5 211 1 184 3 217 23 291 27 98 68 191 111
254 40 59 130 157 144 157 5 0 56 23 111 51 150 77 217 98 333 109 57 5 112
14 124 21 12 6 58 14 104 18 73 7 87 12 128 43 26 20 73 45 104 57 105 40 145
64 187 115 22 27 57 67 77 90 35 40 37 45 46 151 l10 110 -37 55 c-37 54 -46
61 -123 96 -20 9 -47 28 -60 43 -18 21 -47 32 -152 59 -142 35 -200 40 -224
18 -9 -7 -43 -23 -75 -35 -75 -28 -143 -76 -151 -108 -15 -62 25 -140 91 -179
41 -24 46 -25 98 -13 79 17 90 6 84 -86 -3 -44 -13 -85 -26 -110 -31 -60 -99
-123 -146 -136 -103 -28 -137 -42 -151 -61 l-14 -21 -128 19 c-147 22 -185 41
-251 127 -62 79 -82 135 -82 225 0 198 107 379 276 466 38 19 98 52 134 72
110 61 156 75 275 83 165 12 239 12 362 1z m-3209 -70 c347 -37 589 -188 712
-445 58 -121 74 -185 73 -290 -2 -140 -64 -272 -188 -399 -112 -115 -231 -165
-365 -152 -83 8 -236 -17 -327 -55 -27 -11 -48 -10 -135 4 -91 14 -115 15
-203 3 -107 -15 -140 -27 -250 -93 -116 -70 -295 -274 -295 -337 0 -28 1 -28
23 -12 75 54 107 67 179 73 54 4 90 14 138 38 156 78 312 74 583 -14 173 -56
226 -64 369 -58 94 4 136 10 177 26 59 24 178 98 200 124 17 21 43 22 81 2 37
-19 37 -26 10 -264 -11 -97 -21 -205 -22 -241 l-3 -65 -57 -7 c-87 -11 -98
-20 -98 -79 0 -91 30 -110 98 -64 34 23 62 32 62 20 0 -3 -17 -29 -37 -57 -20
-29 -37 -54 -38 -55 -1 -2 -15 3 -32 9 -26 10 -38 9 -72 -6 -48 -22 -84 -16
-107 19 -22 34 -13 52 36 66 49 15 62 30 58 66 -2 23 -11 31 -43 42 -51 18
-191 20 -276 4 -50 -10 -80 -10 -120 -2 -30 6 -141 13 -248 16 -107 2 -215 8
-240 13 -27 5 -70 4 -106 -2 -33 -5 -109 -11 -170 -12 -60 -2 -189 -6 -287
-11 l-176 -8 -24 26 c-41 44 -71 149 -71 246 0 140 68 352 158 496 54 88 86
116 180 161 38 19 94 51 122 73 l53 38 167 6 c116 3 196 11 258 25 366 83 363
82 446 153 77 67 141 143 167 198 12 27 16 67 17 166 0 160 -14 206 -78 248
-23 15 -63 43 -88 61 -42 31 -51 34 -140 38 -82 3 -99 7 -134 31 -71 48 -174
35 -325 -41 -91 -46 -110 -75 -110 -172 0 -36 4 -70 8 -76 4 -6 27 -21 52 -34
39 -20 58 -22 172 -22 l128 1 0 -48 c0 -128 -75 -222 -242 -303 -77 -37 -147
-37 -381 3 -72 12 -81 16 -131 63 -58 55 -73 91 -98 234 -10 62 -10 81 5 144
38 157 122 252 301 341 63 32 133 72 154 91 44 36 105 50 272 65 91 7 100 7
258 -9z m972 -772 c0 -32 -3 -39 -10 -28 -13 20 -13 70 0 70 6 0 10 -19 10
-42z m-70 -238 c0 -5 -2 -10 -4 -10 -3 0 -8 5 -11 10 -3 6 -1 10 4 10 6 0 11
-4 11 -10z m2672 -225 c8 -19 8 -31 0 -50 -12 -26 -57 -53 -68 -42 -10 9 -25
98 -18 108 3 5 21 9 40 9 27 0 37 -5 46 -25z m578 -449 c0 -22 -32 -56 -52
-56 -16 0 -8 40 12 60 27 27 40 25 40 -4z m2511 -366 c49 -27 10 -76 -106
-134 -69 -35 -70 -35 -89 -16 -27 26 -16 44 52 80 33 18 70 43 83 56 25 27 32
28 60 14z m-451 -125 c0 -8 -7 -15 -15 -15 -8 0 -15 7 -15 15 0 8 7 15 15 15
8 0 15 -7 15 -15z m-3495 -40 c0 -13 -8 -21 -23 -23 -26 -4 -42 25 -21 39 22
14 44 6 44 -16z m-2597 -91 c12 -8 22 -19 22 -25 0 -14 -53 -10 -73 5 -18 14
-18 15 0 25 24 14 25 14 51 -5z m6190 -874 c249 -46 377 -97 458 -182 114
-120 140 -145 156 -154 11 -6 24 -36 34 -79 9 -39 23 -87 31 -107 14 -34 14
-43 -1 -104 -19 -75 -49 -139 -112 -236 -24 -37 -50 -81 -59 -98 l-16 -31 60
-64 c63 -68 119 -155 153 -239 15 -39 22 -82 25 -178 5 -109 2 -136 -16 -196
-43 -141 -117 -235 -315 -397 -41 -34 -57 -40 -113 -46 -46 -5 -88 -18 -148
-48 -81 -40 -86 -41 -130 -30 -31 8 -101 10 -208 6 -254 -8 -537 21 -676 70
-141 51 -260 148 -356 293 -67 103 -78 147 -70 297 10 198 45 292 145 387 42
40 50 53 50 83 0 20 -9 50 -19 67 -36 59 -63 167 -68 276 -9 197 39 331 163
456 152 153 301 234 489 265 60 10 477 1 543 -11z m-3065 -61 c73 -9 98 -17
150 -49 34 -20 96 -54 137 -75 208 -104 325 -236 364 -412 20 -90 20 -124 0
-221 -30 -151 -112 -281 -236 -374 -41 -31 -82 -68 -92 -82 -14 -23 -24 -26
-71 -26 -30 0 -128 -9 -217 -20 -90 -11 -206 -25 -258 -30 -209 -24 -245 -32
-295 -60 -27 -16 -90 -39 -140 -51 -133 -32 -185 -61 -269 -149 -83 -87 -120
-154 -121 -220 0 -39 3 -45 22 -48 16 -2 36 11 73 51 97 104 196 136 369 118
58 -5 140 -13 181 -16 41 -4 93 -11 114 -17 163 -41 391 -64 496 -49 147 20
224 53 338 146 64 51 88 55 124 16 16 -17 33 -31 39 -31 5 0 9 -50 9 -117 1
-65 5 -152 10 -193 5 -41 14 -124 21 -185 7 -60 15 -113 18 -117 11 -12 111
18 131 38 10 11 27 52 39 93 34 123 40 115 53 -73 6 -81 9 -149 6 -152 -3 -2
-95 1 -204 7 -133 8 -230 9 -291 3 -93 -10 -93 -10 -93 13 0 13 11 30 26 40
l26 17 -22 18 c-30 24 -49 23 -85 -6 -27 -22 -32 -23 -47 -9 -10 9 -25 13 -34
9 -20 -8 -9 -22 21 -28 18 -4 17 -6 -8 -16 -84 -35 -245 -33 -334 3 -48 20
-123 30 -123 16 0 -24 -53 -90 -81 -101 -33 -14 -145 -9 -191 9 -36 14 -37 49
-3 89 14 17 25 34 25 39 0 6 -104 14 -247 19 -271 9 -394 8 -493 -6 -35 -5
-67 -7 -70 -4 -3 3 -5 99 -5 212 1 183 3 217 23 290 33 121 56 174 111 255 74
109 113 141 260 212 154 75 243 105 315 105 28 0 83 9 121 20 38 11 95 20 126
20 49 0 64 5 105 35 51 36 110 67 154 80 88 26 133 66 252 218 11 15 20 56 27
127 l9 105 -37 55 c-30 43 -51 61 -100 85 -34 17 -74 44 -90 61 -23 24 -41 33
-80 38 -28 4 -78 15 -112 26 -82 27 -140 25 -203 -4 -28 -13 -70 -31 -93 -41
-62 -26 -113 -76 -113 -112 0 -79 88 -180 153 -174 18 1 52 3 77 4 l45 2 -1
-80 c0 -89 -12 -121 -71 -186 -44 -49 -92 -74 -156 -83 -32 -5 -59 -17 -83
-38 -34 -30 -36 -31 -87 -19 -29 6 -84 15 -124 20 -86 11 -138 43 -198 123
-56 75 -75 134 -75 227 0 121 48 251 127 345 30 36 103 93 141 109 15 7 65 33
112 59 108 59 179 87 249 97 83 13 354 12 454 0z m-3180 -74 c316 -55 527
-193 640 -420 88 -176 104 -319 52 -466 -24 -68 -100 -183 -164 -246 -112
-113 -225 -158 -367 -147 -64 5 -103 2 -184 -15 -56 -13 -118 -30 -136 -39
-32 -15 -41 -14 -123 2 -92 19 -155 18 -276 -5 -64 -12 -105 -30 -190 -85 -30
-18 -56 -34 -59 -34 -9 0 -137 -139 -181 -197 -44 -60 -70 -115 -58 -127 3 -3
27 10 52 28 51 38 106 56 167 56 27 0 69 13 117 36 41 19 112 43 158 52 77 15
89 15 188 -2 58 -10 153 -34 211 -53 279 -92 473 -97 634 -16 51 26 150 95
161 112 6 10 15 8 68 -11 34 -13 34 -27 7 -267 -11 -97 -21 -205 -22 -241 l-3
-65 -63 -7 c-81 -9 -92 -18 -92 -80 0 -89 34 -112 92 -63 26 22 68 34 68 20 0
-3 -16 -25 -35 -51 -19 -25 -35 -50 -35 -55 0 -5 -13 -3 -30 6 -26 13 -34 14
-57 2 -59 -30 -80 -29 -115 2 -27 25 -31 33 -22 48 6 10 28 24 50 31 44 15 54
26 54 64 0 29 -2 29 -85 46 -92 19 -107 20 -174 5 -70 -15 -193 -19 -213 -7
-7 4 -116 12 -243 17 -298 11 -262 11 -480 -2 -485 -30 -488 -29 -519 37 -65
134 -67 242 -11 436 32 111 80 216 140 306 42 63 52 72 136 115 51 26 115 65
143 86 l51 39 118 0 c64 0 161 7 215 15 137 20 424 90 472 115 57 29 194 169
227 232 26 50 28 61 28 178 0 183 -8 204 -108 276 -44 33 -88 63 -96 68 -9 5
-54 10 -102 11 -79 1 -91 3 -129 30 -58 40 -135 41 -235 2 -173 -68 -205 -102
-205 -217 0 -36 4 -70 8 -77 4 -7 28 -21 52 -32 38 -17 66 -21 173 -21 l127 0
0 -47 c0 -122 -74 -219 -222 -291 -101 -49 -121 -51 -313 -22 -71 11 -135 20
-141 20 -7 0 -36 20 -66 45 -47 38 -58 55 -76 109 -54 163 -52 256 7 383 47
100 122 168 264 238 65 32 134 73 155 90 31 27 53 35 132 48 52 9 111 18 130
20 76 6 246 -3 333 -18z m909 -761 c4 -37 -6 -55 -16 -28 -9 24 -7 64 3 64 5
0 11 -16 13 -36z m2602 -466 c16 -26 -4 -71 -36 -82 -15 -5 -30 -7 -34 -4 -10
11 -25 89 -18 99 9 16 76 6 88 -13z m576 -452 c0 -20 -35 -56 -55 -56 -11 0
-4 36 11 58 20 29 44 28 44 -2z m2518 -368 c33 -33 -6 -77 -111 -129 -72 -35
-99 -34 -105 8 -2 15 11 27 62 52 36 19 75 44 87 57 25 26 48 31 67 12z m-460
-119 c-2 -6 -8 -10 -13 -10 -5 0 -11 4 -13 10 -2 6 4 11 13 11 9 0 15 -5 13
-11z m-3488 -34 c10 -12 7 -17 -14 -26 -31 -14 -53 -1 -43 25 8 20 41 21 57 1z
m-2598 -102 c23 -21 23 -33 -2 -33 -23 0 -70 20 -70 31 0 21 49 23 72 2z
m6038 -872 c85 -5 184 -16 220 -25 271 -68 300 -82 430 -216 58 -59 111 -109
117 -111 7 -2 20 -35 29 -74 9 -38 23 -87 31 -107 14 -34 14 -43 -1 -105 -19
-74 -58 -158 -116 -243 -20 -30 -45 -70 -54 -88 l-17 -33 59 -63 c72 -77 135
-184 163 -277 19 -61 21 -87 16 -197 -5 -136 -15 -174 -67 -262 -50 -84 -89
-127 -205 -225 -109 -92 -110 -92 -175 -98 -49 -4 -83 -15 -143 -47 -76 -40
-81 -41 -126 -31 -27 7 -139 11 -276 9 -222 -1 -388 12 -535 43 -168 36 -329
154 -438 322 -65 99 -77 153 -67 305 11 190 48 284 148 378 52 50 60 84 31
139 -94 178 -99 426 -12 603 52 106 226 266 355 327 166 79 295 94 633 76z
m-2925 -72 c75 -9 101 -17 155 -48 36 -21 106 -59 155 -85 216 -110 326 -249
357 -452 10 -61 9 -87 -6 -161 -31 -161 -115 -296 -246 -393 -38 -29 -76 -63
-85 -76 -12 -19 -24 -24 -58 -24 -23 0 -194 -18 -379 -39 -319 -37 -340 -41
-395 -70 -32 -16 -102 -42 -156 -56 -136 -35 -182 -62 -263 -148 -81 -87 -118
-154 -118 -217 -1 -39 2 -45 21 -48 16 -2 36 11 73 51 61 66 127 103 206 116
68 11 355 -10 469 -34 183 -38 259 -48 375 -49 195 -1 318 38 438 139 75 64
94 66 142 19 l40 -39 0 -110 c0 -61 9 -182 20 -270 11 -88 20 -172 20 -187 0
-37 9 -40 70 -24 68 18 84 36 109 125 34 123 40 115 53 -73 6 -81 8 -149 5
-152 -3 -3 -88 0 -189 6 -164 11 -332 8 -380 -6 -30 -9 -23 41 9 61 l27 18
-23 18 c-30 25 -40 24 -81 -5 -31 -21 -37 -22 -52 -9 -12 11 -21 12 -35 5 -19
-11 -19 -11 27 -25 22 -7 -29 -25 -105 -37 -69 -11 -182 1 -241 25 -17 7 -49
16 -71 20 -40 6 -41 5 -66 -38 -15 -24 -37 -52 -51 -61 -30 -19 -118 -20 -186
-3 -37 10 -46 16 -48 38 -2 17 6 37 22 57 40 47 35 54 -41 51 -38 -2 -183 1
-323 5 -165 5 -283 4 -335 -2 -44 -6 -82 -8 -85 -5 -3 2 -5 98 -5 211 1 217 6
252 57 397 25 71 111 205 165 257 44 42 268 156 368 187 37 12 93 21 124 21
31 0 88 9 126 20 38 11 93 20 120 20 43 0 61 7 119 45 37 24 92 53 122 65 118
44 142 64 266 223 11 15 20 56 26 127 l10 105 -40 57 c-32 49 -49 63 -102 87
-34 15 -71 39 -82 53 -15 19 -44 31 -129 53 -138 35 -215 42 -247 22 -12 -9
-52 -27 -88 -42 -36 -14 -81 -39 -100 -55 -32 -26 -35 -33 -34 -78 1 -66 37
-119 107 -158 23 -12 36 -13 88 -2 76 15 81 9 76 -87 -5 -87 -29 -137 -97
-198 -40 -36 -63 -48 -108 -57 -64 -14 -87 -24 -119 -52 -21 -20 -24 -20 -110
-4 -48 9 -102 16 -119 16 -66 0 -178 108 -224 216 -41 95 -20 269 47 390 35
63 136 165 188 188 22 11 74 39 116 63 104 59 191 93 263 103 92 12 339 11
441 -1z m-3180 -76 c243 -37 389 -107 528 -253 61 -63 86 -99 126 -182 57
-119 74 -185 74 -283 0 -127 -52 -253 -155 -374 -117 -138 -252 -200 -405
-186 -74 7 -246 -21 -315 -51 -34 -15 -45 -15 -140 0 -94 15 -112 16 -210 2
-114 -16 -146 -29 -256 -100 -115 -76 -282 -269 -282 -328 l0 -28 51 35 c57
39 105 55 166 55 27 0 66 11 105 30 167 81 293 84 527 14 224 -68 299 -83 409
-84 66 0 124 6 160 16 73 21 179 76 230 120 44 37 54 39 101 23 28 -10 31 -15
31 -52 0 -22 -9 -120 -20 -216 -11 -97 -21 -205 -22 -241 l-3 -65 -55 -6 c-86
-9 -100 -20 -100 -80 0 -90 32 -112 94 -64 29 22 66 33 66 20 0 -3 -15 -25
-34 -49 -19 -25 -36 -51 -38 -58 -4 -10 -11 -9 -31 4 -24 17 -28 17 -73 -3
-44 -20 -49 -20 -80 -6 -35 17 -53 52 -35 70 6 6 30 18 54 27 34 12 43 21 45
43 5 42 -10 53 -93 67 -72 12 -107 11 -235 -9 -32 -5 -78 -5 -110 1 -45 7
-417 29 -535 30 -16 0 -113 -5 -215 -11 -317 -20 -427 -24 -465 -17 -33 7 -39
13 -66 71 -63 134 -58 264 18 485 30 87 60 149 107 223 50 76 72 96 145 130
36 17 96 52 133 79 l68 48 127 0 c159 0 331 29 597 101 106 29 242 146 304
264 25 46 27 59 27 175 0 188 -6 202 -122 285 l-95 68 -87 1 c-78 1 -92 4
-129 28 -61 41 -114 44 -208 13 -120 -40 -196 -84 -216 -125 -19 -36 -25 -154
-10 -177 4 -7 28 -21 52 -32 38 -17 66 -21 173 -21 l127 0 0 -47 c0 -124 -75
-222 -225 -293 -86 -41 -92 -42 -165 -37 -41 3 -126 13 -188 23 -109 16 -116
19 -168 61 -46 38 -56 52 -74 109 -52 169 -50 255 10 381 45 97 124 169 257
235 59 29 130 70 157 90 38 28 65 39 120 49 171 29 294 30 471 2z m917 -759
c4 -37 -6 -55 -16 -28 -9 24 -7 64 3 64 5 0 11 -16 13 -36z m-72 -244 c0 -5
-2 -10 -4 -10 -3 0 -8 5 -11 10 -3 6 -1 10 4 10 6 0 11 -4 11 -10z m2674 -222
c15 -24 -3 -70 -34 -85 -14 -7 -29 -8 -33 -4 -12 12 -28 91 -21 102 9 16 76 6
88 -13z m576 -452 c0 -22 -32 -56 -52 -56 -13 0 -9 34 8 58 20 30 44 28 44 -2z
m2511 -366 c48 -26 4 -82 -105 -132 -52 -24 -72 -29 -84 -21 -33 20 -19 46 43
81 33 18 71 44 85 58 28 27 33 28 61 14z m-451 -126 c0 -9 -5 -14 -12 -12 -18
6 -21 28 -4 28 9 0 16 -7 16 -16z m-3492 -26 c15 -15 -3 -38 -30 -38 -23 0
-36 29 -17 41 19 12 33 11 47 -3z m-2600 -104 c43 -30 12 -47 -43 -22 -27 12
-32 24 -12 31 21 9 32 7 55 -9z"/>
<path d="M8390 9723 c-159 -15 -290 -38 -325 -55 -75 -38 -139 -94 -168 -146
-25 -45 -28 -60 -25 -128 l3 -76 38 -13 c21 -7 59 -33 86 -58 26 -25 61 -51
77 -60 35 -18 157 -41 182 -35 10 3 63 -3 118 -13 109 -21 379 -63 463 -73 62
-8 96 -24 130 -60 32 -34 62 -33 126 4 104 60 147 132 147 250 0 88 -22 127
-125 222 -107 98 -105 97 -302 183 l-150 65 -120 -2 c-66 0 -136 -3 -155 -5z"/>
<path d="M7822 8700 c-43 -10 -67 -33 -107 -102 -64 -108 -78 -192 -49 -289
14 -48 29 -67 133 -167 64 -63 136 -124 161 -136 95 -49 295 -92 490 -107 180
-14 265 -8 355 25 39 14 90 30 114 36 54 14 134 91 171 165 20 40 25 65 25
126 -1 106 -10 117 -158 188 -68 33 -129 66 -136 75 -10 12 -28 14 -94 9 -86
-6 -161 6 -302 47 -38 12 -104 26 -145 31 -41 6 -129 28 -195 49 -100 32 -220
63 -228 59 -1 -1 -17 -5 -35 -9z"/>
<path d="M2097 9124 c-11 -12 3 -24 29 -24 16 0 24 5 22 13 -5 13 -40 22 -51
11z"/>
<path d="M8290 6405 c-143 -16 -205 -30 -250 -57 -123 -74 -170 -145 -170
-256 0 -74 6 -85 52 -96 15 -3 51 -29 80 -57 75 -72 110 -84 263 -94 33 -2
110 -13 170 -24 61 -12 178 -30 260 -41 213 -29 212 -29 261 -71 25 -22 52
-39 60 -39 30 0 117 53 160 96 48 50 64 94 65 177 1 76 -18 131 -60 170 -168
159 -158 152 -336 231 l-170 76 -135 -1 c-74 -1 -187 -7 -250 -14z"/>
<path d="M7835 5396 c-5 -3 -22 -7 -36 -10 -36 -8 -104 -112 -131 -199 -40
-132 -6 -235 111 -336 36 -31 85 -75 110 -99 58 -56 84 -69 210 -102 158 -42
288 -59 466 -62 156 -2 162 -1 245 29 47 17 100 34 118 38 42 9 118 84 157
155 24 45 30 67 30 120 0 36 -3 77 -8 92 -10 37 -60 73 -156 113 -44 18 -98
46 -118 62 -34 27 -42 29 -73 20 -57 -15 -166 -2 -307 37 -73 20 -163 40 -200
45 -38 5 -123 27 -191 50 -113 37 -203 56 -227 47z"/>
<path d="M2101 5817 c-13 -16 -5 -27 20 -27 24 0 35 20 18 31 -19 12 -25 11
-38 -4z"/>
<path d="M8370 3093 c-128 -12 -270 -37 -304 -54 -71 -33 -140 -92 -168 -144
-23 -42 -28 -62 -28 -128 0 -54 4 -79 13 -81 6 -3 24 -7 39 -10 15 -4 53 -31
84 -61 64 -63 114 -82 234 -89 41 -3 127 -14 190 -26 103 -19 437 -69 467 -70
6 0 33 -18 58 -40 25 -22 56 -40 68 -40 31 0 140 72 171 113 34 44 46 87 47
162 1 96 -19 131 -135 237 -92 82 -115 98 -207 137 -57 25 -131 57 -165 73
-58 27 -67 28 -195 26 -74 0 -150 -3 -169 -5z"/>
<path d="M7807 2065 c-46 -16 -36 -6 -85 -82 -109 -171 -90 -324 57 -452 35
-31 78 -71 95 -89 44 -48 99 -78 198 -106 145 -42 308 -65 483 -68 l160 -3
125 40 c115 37 129 44 175 91 71 71 99 133 100 214 0 36 -3 77 -7 91 -10 36
-65 75 -158 114 -43 18 -93 43 -112 56 -29 21 -44 24 -143 24 -95 1 -128 6
-240 37 -71 20 -164 41 -206 47 -42 6 -109 22 -150 37 -87 32 -206 64 -234 63
-11 0 -37 -6 -58 -14z"/>
<path d="M2101 2497 c-14 -17 -4 -27 26 -27 26 0 32 25 7 34 -21 8 -20 8 -33
-7z"/>
</g>
</svg>
